<?xml version="1.0" encoding="UTF-8" standalone="no"?>
<!DOCTYPE svg PUBLIC "-//W3C//DTD SVG 1.1//EN" "http://www.w3.org/Graphics/SVG/1.1/DTD/svg11.dtd">
<svg width="100%" height="100%" viewBox="0 0 248 87" version="1.1" xmlns="http://www.w3.org/2000/svg" xmlns:xlink="http://www.w3.org/1999/xlink" xml:space="preserve" xmlns:serif="http://www.serif.com/" style="fill-rule:evenodd;clip-rule:evenodd;stroke-linejoin:round;stroke-miterlimit:2;">
    <g transform="matrix(1.11,0,0,1,-7.56914,-20.2918)">
        <g id="NEW">
            <g id="Black">
                <g id="Full">
                    <g transform="matrix(67,0,0,67,186.08,95.3421)">
                        <path d="M0.163,0.005C0.125,0.005 0.094,-0.01 0.07,-0.04C0.047,-0.07 0.035,-0.109 0.035,-0.158C0.035,-0.211 0.047,-0.262 0.072,-0.31C0.097,-0.357 0.13,-0.396 0.171,-0.425C0.212,-0.454 0.255,-0.468 0.301,-0.468C0.316,-0.468 0.326,-0.465 0.331,-0.46C0.336,-0.454 0.34,-0.444 0.343,-0.429C0.356,-0.432 0.37,-0.433 0.385,-0.433C0.401,-0.433 0.413,-0.429 0.422,-0.421C0.431,-0.413 0.435,-0.402 0.435,-0.387C0.435,-0.372 0.432,-0.345 0.425,-0.307C0.418,-0.266 0.412,-0.228 0.408,-0.191C0.404,-0.154 0.402,-0.112 0.402,-0.066C0.402,-0.041 0.397,-0.023 0.387,-0.012C0.376,-0.001 0.359,0.005 0.336,0.005C0.313,0.005 0.297,-0.001 0.285,-0.012C0.275,-0.023 0.269,-0.04 0.269,-0.065L0.27,-0.081C0.249,-0.024 0.214,0.005 0.163,0.005ZM0.202,-0.096C0.221,-0.096 0.238,-0.109 0.253,-0.135C0.268,-0.161 0.282,-0.207 0.294,-0.274L0.313,-0.375C0.286,-0.374 0.26,-0.364 0.237,-0.344C0.214,-0.323 0.195,-0.296 0.181,-0.263C0.167,-0.23 0.16,-0.194 0.16,-0.157C0.16,-0.137 0.164,-0.122 0.172,-0.112C0.179,-0.101 0.189,-0.096 0.202,-0.096Z" style="fill-rule:nonzero;"/>
                    </g>
                    <text x="13.089px" y="95.342px" style="font-family:'Pacifico-Regular', 'Pacifico';font-size:67px;">V<tspan x="61.795px " y="95.342px ">a</tspan>nill</text>
                </g>
            </g>
        </g>
    </g>
</svg>
